<svg width="1024" height="720" viewBox="0 0 1024 720" fill="none" xmlns="http://www.w3.org/2000/svg">
<path d="M1360.53 359.798C1360.53 686.677 980.628 951.664 512 951.664M1360.53 359.798C1360.53 32.9196 980.628 -232.068 512 -232.068M1360.53 359.798H-336.529M512 951.664C43.3705 951.664 -336.529 686.677 -336.529 359.798M512 951.664V-232.068M512 -232.068C43.3705 -232.068 -336.529 32.9196 -336.529 359.798M512 -232.073C194.045 -182.371 -47.499 63.7074 -47.499 359.793C-47.499 655.877 194.045 901.955 512 951.659M512 -232.073C103.632 -182.371 -206.598 63.7074 -206.598 359.793C-206.598 655.877 103.632 901.955 512 951.659M512 -232.073C353.698 -152.993 238.879 82.0881 238.879 359.793C238.879 637.497 353.698 872.577 512 951.659M512 -232.073C428.768 -103.288 374.113 113.751 374.113 359.793C374.113 605.833 428.768 822.872 512 951.659M512 -232.073C269.168 -152.993 93.0379 82.088 93.0379 359.793C93.0379 637.495 269.168 872.577 512 951.659M512 951.667C829.955 901.964 1071.5 655.886 1071.5 359.801C1071.5 63.7161 829.955 -182.363 512.001 -232.064M512 951.667C920.368 901.964 1230.6 655.886 1230.6 359.801C1230.6 63.7163 920.368 -182.363 512.001 -232.064M512 951.667C670.302 872.586 785.12 637.505 785.12 359.801C785.12 82.0969 670.302 -152.984 512.001 -232.064M512 951.667C595.232 822.88 649.887 605.841 649.887 359.801C649.887 113.759 595.232 -103.279 512.001 -232.064M512 951.667C754.832 872.586 930.962 637.505 930.962 359.801C930.962 82.0969 754.832 -152.984 512.001 -232.064M-235.766 78.6621C-40.8394 156.62 222.36 204.433 511.999 204.433C801.637 204.433 1064.84 156.62 1259.76 78.6621M1320.76 178.538C1096.48 245.835 816.139 285.814 512 285.814C207.86 285.814 -72.482 245.835 -296.754 178.538M-150.914 -10.1182C26.2713 73.9593 258.176 124.901 511.999 124.901C765.821 124.901 997.727 73.9593 1174.91 -10.1182M58.5663 -141.438C188.47 -73.6529 344.363 -34.1625 511.999 -34.1625C679.634 -34.1625 835.527 -73.6528 965.43 -141.438M688.333 -219.331C632.799 -198.927 573.536 -187.899 511.999 -187.899C450.461 -187.899 391.196 -198.927 335.663 -219.331M1071.5 -85.9511C943.588 -6.13351 739.13 45.3692 511.999 45.3692C284.868 45.3692 80.41 -6.13351 -47.4994 -85.9511M835.5 -187.678C747.648 -137.999 634.923 -108.146 511.999 -108.146C389.074 -108.146 276.349 -137.999 188.497 -187.678M1259.76 640.93C1064.84 562.971 801.639 515.158 512 515.158C222.361 515.158 -40.8384 562.971 -235.766 640.93M-296.754 541.052C-72.4827 473.756 207.859 433.776 511.999 433.776C816.138 433.778 1096.48 473.756 1320.75 541.052M1174.91 729.71C997.727 645.633 765.821 594.691 511.999 594.691C258.176 594.691 26.2713 645.633 -150.914 729.71M965.43 861.03C835.527 793.245 679.632 753.755 511.999 753.755C344.363 753.755 188.47 793.245 58.5657 861.03M335.664 938.923C391.198 918.518 450.461 907.491 511.999 907.491C573.538 907.491 632.801 918.518 688.334 938.923M-47.499 805.543C80.41 725.725 284.868 674.223 512 674.223C739.13 674.223 943.588 725.725 1071.5 805.543M188.497 907.27C276.349 857.591 389.074 827.739 511.999 827.739C634.923 827.739 747.647 857.591 835.5 907.27" stroke="white" stroke-width="0.444271"/>
</svg>
